PathFileType	4	(X/Y/Z)	RBDS07static.trc
DataRate	CameraRate	NumFrames	NumMarkers	Units	OrigDataRate	OrigDataStartFrame	OrigNumFrames
150.000000	150.000000	4	48	mm	150.000000	75	150
Frame#	Time	L.Ankle			L.Ankle.Medial			L.ASIS			L.GTR			L.Heel.Bottom			L.Heel.Lateral			L.Heel.Top			L.HF			L.Iliac.Crest			L.Knee			L.Knee.Medial			L.MT1			L.MT2			L.MT5			L.PSIS			L.Shank.Bottom.Lateral			L.Shank.Bottom.Medial			L.Shank.Top.Lateral			L.Shank.Top.Medial			L.Thigh.Bottom.Lateral			L.Thigh.Bottom.Medial			L.Thigh.Top.Lateral			L.Thigh.Top.Medial			L.TT			R.Ankle			R.Ankle.Medial			R.ASIS			R.GTR			R.Heel.Bottom			R.Heel.Lateral			R.Heel.Top			R.HF			R.Iliac.Crest			R.Knee			R.Knee.Medial			R.MT1			R.MT2			R.MT5			R.PSIS			R.Shank.Bottom.Lateral			R.Shank.Bottom.Medial			R.Shank.Top.Lateral			R.Shank.Top.Medial			R.Thigh.Bottom.Lateral			R.Thigh.Bottom.Medial			R.Thigh.Top.Lateral			R.Thigh.Top.Medial			R.TT			
		X1	Y1	Z1	X2	Y2	Z2	X3	Y3	Z3	X4	Y4	Z4	X5	Y5	Z5	X6	Y6	Z6	X7	Y7	Z7	X8	Y8	Z8	X9	Y9	Z9	X10	Y10	Z10	X11	Y11	Z11	X12	Y12	Z12	X13	Y13	Z13	X14	Y14	Z14	X15	Y15	Z15	X16	Y16	Z16	X17	Y17	Z17	X18	Y18	Z18	X19	Y19	Z19	X20	Y20	Z20	X21	Y21	Z21	X22	Y22	Z22	X23	Y23	Z23	X24	Y24	Z24	X25	Y25	Z25	X26	Y26	Z26	X27	Y27	Z27	X28	Y28	Z28	X29	Y29	Z29	X30	Y30	Z30	X31	Y31	Z31	X32	Y32	Z32	X33	Y33	Z33	X34	Y34	Z34	X35	Y35	Z35	X36	Y36	Z36	X37	Y37	Z37	X38	Y38	Z38	X39	Y39	Z39	X40	Y40	Z40	X41	Y41	Z41	X42	Y42	Z42	X43	Y43	Z43	X44	Y44	Z44	X45	Y45	Z45	X46	Y46	Z46	X47	Y47	Z47	X48	Y48	Z48	

76	0.5	696.2821044921875	113.3654708862305	1034.669189453125	718.751708984375	124.8852157592773	1117.452880859375	842.0120849609375	1083.591552734375	1089.719848632813	776.4198608398438	984.822021484375	1046.52197265625	637.38671875	39.60675048828125	1080.095703125	665.4366455078125	61.30453109741211	1038.869750976563	644.9051513671875	87.52483367919922	1082.925537109375	695.6228637695313	502.2772827148438	1045.801025390625	780.57177734375	1132.037353515625	1068.9697265625	704.6314697265625	560.6889038085938	1055.980346679688	714.12060546875	537.4337768554688	1173.115844726563	854.3642578125	56.05656051635742	1119.516723632813	858.0957641601563	71.63405609130859	1080.11865234375	828.4778442382813	50.48112106323242	1010.900695800781	681.4036254882813	1101.772827148438	1180.111206054688	689.0990600585938	202.650634765625	1034.828735351563	646.48876953125	196.7964019775391	1068.512573242188	674.058837890625	281.2972412109375	1027.763671875	632.2820434570313	276.5612487792969	1060.67236328125	707.7022094726563	703.9937133789063	1045.14013671875	661.7283935546875	711.2459716796875	1102.08837890625	717.359130859375	813.918701171875	1041.803100585938	677.8564453125	820.1112670898438	1099.922241210938	754.907470703125	467.3316955566406	1094.716918945313	702.6375122070313	107.634651184082	1411.619262695313	721.5810546875	130.9586334228516	1328.813720703125	849.011474609375	1084.3173828125	1347.810424804688	796.2213745117188	984.9540405273438	1392.815551757813	636.2301635742188	40.19066619873047	1370.206176757813	659.9458618164063	59.70298767089844	1408.919799804688	643.5831298828125	89.74919128417969	1369.500610351563	724.0980834960938	502.6561279296875	1414.166870117188	782.3895263671875	1136.521362304688	1369.4541015625	732.7334594726563	559.8447265625	1404.78662109375	732.6287841796875	541.8536987304688	1287.981689453125	857.1190185546875	61.1850471496582	1328.687866210938	858.0703125	74.04271697998047	1369.888916015625	832.7404174804688	54.6512336730957	1433.007080078125	688.7147216796875	1106.436889648438	1269.972778320313	693.50244140625	202.7784271240234	1417.264892578125	652.98095703125	209.3571929931641	1385.255004882813	693.9759521484375	286.5398254394531	1430.49560546875	650.03515625	289.2015075683594	1399.206176757813	764.3780517578125	668.1012573242188	1412.365844726563	697.5555419921875	681.9891357421875	1384.550415039063	782.7738037109375	776.9977416992188	1419.779296875	719.2926635742188	789.2614135742188	1394.964721679688	778.4150390625	469.8787536621094	1364.877197265625	
77	0.5066666666666667	696.2861328125	113.3628463745117	1034.676025390625	718.7432250976563	124.8737564086914	1117.448364257813	842.0001220703125	1083.590576171875	1089.722534179688	776.4057006835938	984.8292236328125	1046.52734375	637.3851928710938	39.61003494262695	1080.093994140625	665.4305419921875	61.30303573608398	1038.877075195313	644.9088745117188	87.52677154541016	1082.932250976563	695.6165161132813	502.2768249511719	1045.800537109375	780.559326171875	1132.040771484375	1068.9775390625	704.628173828125	560.6836547851563	1055.979736328125	714.1244506835938	537.4293212890625	1173.12841796875	854.3681640625	56.05917358398438	1119.525390625	858.1002197265625	71.63169097900391	1080.10693359375	828.4642333984375	50.48099136352539	1010.887573242188	681.3917236328125	1101.776245117188	1180.128295898438	689.1046752929688	202.6548461914063	1034.83349609375	646.4849243164063	196.7998809814453	1068.512084960938	674.0614624023438	281.2937622070313	1027.768310546875	632.2845458984375	276.5704956054688	1060.67822265625	707.68603515625	704.0023193359375	1045.14892578125	661.7217407226563	711.239990234375	1102.101806640625	717.3589477539063	813.91650390625	1041.816162109375	677.8467407226563	820.1058959960938	1099.9296875	754.9172973632813	467.3323669433594	1094.711059570313	702.6432495117188	107.6455383300781	1411.621948242188	721.5704345703125	130.9679565429688	1328.816162109375	849.0020141601563	1084.318603515625	1347.817749023438	796.2156982421875	984.9588012695313	1392.818969726563	636.2352905273438	40.18671417236328	1370.224975585938	659.957275390625	59.69308090209961	1408.911743164063	643.5808715820313	89.7471923828125	1369.5009765625	724.0975341796875	502.6548156738281	1414.172729492188	782.3826293945313	1136.522094726563	1369.465087890625	732.73193359375	559.8587036132813	1404.794189453125	732.620361328125	541.84814453125	1287.991333007813	857.1173095703125	61.17964172363281	1328.69873046875	858.0632934570313	74.04546356201172	1369.896606445313	832.750244140625	54.65038681030273	1433.005004882813	688.69921875	1106.439086914063	1269.982788085938	693.5000610351563	202.7896575927734	1417.270385742188	652.9825439453125	209.358642578125	1385.251953125	693.975341796875	286.5436401367188	1430.493774414063	650.0385131835938	289.2036437988281	1399.201904296875	764.3724365234375	668.1033325195313	1412.366455078125	697.5516357421875	681.9866943359375	1384.554809570313	782.7703247070313	776.9881591796875	1419.785400390625	719.2850341796875	789.2672729492188	1394.972534179688	778.414306640625	469.8702697753906	1364.863891601563	
78	0.5133333333333334	696.2852783203125	113.3723678588867	1034.667602539063	718.74755859375	124.87548828125	1117.440063476563	841.98583984375	1083.58984375	1089.722534179688	776.3997802734375	984.82373046875	1046.5400390625	637.3889770507813	39.60693740844727	1080.105224609375	665.4420776367188	61.29859924316406	1038.869750976563	644.9013061523438	87.53524017333984	1082.932739257813	695.6199951171875	502.2726440429688	1045.809326171875	780.5401611328125	1132.042846679688	1068.986328125	704.6250610351563	560.6893310546875	1055.976684570313	714.1155395507813	537.4310913085938	1173.132568359375	854.355224609375	56.05360412597656	1119.520751953125	858.1054077148438	71.629638671875	1080.110961914063	828.4746704101563	50.47890472412109	1010.8916015625	681.3805541992188	1101.77734375	1180.122680664063	689.1080932617188	202.6516571044922	1034.82763671875	646.4851684570313	196.8018341064453	1068.513549804688	674.0592651367188	281.2981872558594	1027.765747070313	632.2830810546875	276.5682983398438	1060.682250976563	707.6900024414063	703.9959106445313	1045.148071289063	661.7197875976563	711.2467651367188	1102.097045898438	717.3468017578125	813.91748046875	1041.8232421875	677.8406372070313	820.1083984375	1099.936889648438	754.906982421875	467.3059387207031	1094.706298828125	702.6485595703125	107.6471405029297	1411.625	721.57666015625	130.9615631103516	1328.8193359375	848.9879760742188	1084.322021484375	1347.829223632813	796.2197265625	984.96728515625	1392.829345703125	636.2356567382813	40.18579864501953	1370.219360351563	659.953857421875	59.70654296875	1408.925659179688	643.5863647460938	89.75408172607422	1369.501586914063	724.0894775390625	502.6530456542969	1414.171142578125	782.36376953125	1136.53125	1369.473388671875	732.72705078125	559.8551025390625	1404.793823242188	732.6265869140625	541.8521118164063	1287.989501953125	857.1227416992188	61.17473220825195	1328.698852539063	858.0685424804688	74.04494476318359	1369.892456054688	832.7470092773438	54.63763809204102	1433.008422851563	688.6881713867188	1106.440063476563	1269.984741210938	693.4915771484375	202.7841796875	1417.272216796875	652.9843139648438	209.3523712158203	1385.25390625	693.97509765625	286.5485229492188	1430.5009765625	650.029296875	289.2033996582031	1399.2138671875	764.3563232421875	668.0993041992188	1412.373901367188	697.5443725585938	681.9931030273438	1384.555541992188	782.7545166015625	776.9955444335938	1419.79150390625	719.2786254882813	789.2620849609375	1394.98046875	778.4117431640625	469.8677978515625	1364.88427734375	
79	0.52	696.287841796875	113.3678131103516	1034.676635742188	718.7560424804688	124.8805999755859	1117.447875976563	841.9701538085938	1083.595703125	1089.72216796875	776.3822021484375	984.8313598632813	1046.533935546875	637.3896484375	39.60789108276367	1080.092529296875	665.4417114257813	61.29323577880859	1038.877319335938	644.89892578125	87.53128814697266	1082.9189453125	695.6192626953125	502.2820739746094	1045.8056640625	780.5219116210938	1132.037963867188	1068.98095703125	704.6287231445313	560.6926879882813	1055.982055664063	714.1143188476563	537.4346313476563	1173.122802734375	854.3694458007813	56.05313110351563	1119.51318359375	858.0997924804688	71.63160705566406	1080.111572265625	828.4730834960938	50.48828887939453	1010.89306640625	681.3648681640625	1101.778930664063	1180.130981445313	689.1131591796875	202.6538848876953	1034.827392578125	646.4828491210938	196.8037261962891	1068.513793945313	674.0654907226563	281.2996826171875	1027.763427734375	632.2848510742188	276.5712585449219	1060.681762695313	707.68359375	703.996337890625	1045.142944335938	661.7183837890625	711.248779296875	1102.105346679688	717.3466186523438	813.913818359375	1041.818481445313	677.8367309570313	820.1101684570313	1099.941040039063	754.9175415039063	467.3435363769531	1094.712524414063	702.6536865234375	107.6421203613281	1411.62060546875	721.581298828125	130.9599304199219	1328.81396484375	848.9775390625	1084.319702148438	1347.833618164063	796.2000732421875	984.9638671875	1392.834838867188	636.2378540039063	40.19282913208008	1370.215576171875	659.9549560546875	59.70361328125	1408.911254882813	643.5894165039063	89.74726867675781	1369.504516601563	724.0967407226563	502.6523742675781	1414.180908203125	782.3565063476563	1136.535034179688	1369.486083984375	732.7056274414063	559.8545532226563	1404.796508789063	732.6201782226563	541.8569946289063	1287.99609375	857.1140747070313	61.17343902587891	1328.694580078125	858.0609130859375	74.04356384277344	1369.897338867188	832.7451782226563	54.64924240112305	1433.010131835938	688.6685180664063	1106.443359375	1269.989624023438	693.5081176757813	202.7863464355469	1417.269653320313	652.9826049804688	209.3553009033203	1385.253662109375	693.9720458984375	286.5502624511719	1430.503295898438	650.0310668945313	289.1993713378906	1399.216186523438	764.3486328125	668.1061401367188	1412.374145507813	697.5336303710938	681.9924926757813	1384.563232421875	782.738525390625	776.9981079101563	1419.786010742188	719.26416015625	789.2615966796875	1394.970458984375	778.3992309570313	469.8734741210938	1364.872314453125	
